ffmpeg started on 2025-06-16 at 16:50:27
Report written to "D:\Convert\FFMetrics\reports\ssim_report-6.txt"
Log level: 32
Command line:
ffmpeg -hide_banner -nostdin -i "G:\\\xc0\xed\xe8\xec\xe5\\[\xd2\xee\xef]\\\xd0\xfb\xf6\xe0\xf0\xfc-\xe2\xe0\xec\xef\xe8\xf0\\\xd2\xc2-2\\[JamClub] Vampire Knight Guilty - 03_HEVC.mkv" -i "G:\\\xc0\xed\xe8\xec\xe5\\[\xd2\xee\xef]\\\xd0\xfb\xf6\xe0\xf0\xfc-\xe2\xe0\xec\xef\xe8\xf0\\\xd2\xc2-2\\[JamClub] Vampire Knight Guilty - 03.mp4" -lavfi "[0:v]settb=AVTB,setpts=PTS-STARTPTS,format=pix_fmts=yuv420p10,fps=24000/1001,scale=1920:1080:flags=bicubic[main];[1:v]settb=AVTB,setpts=PTS-STARTPTS,format=pix_fmts=yuv420p,fps=24000/1001,scale=1920:1080:flags=bicubic[ref];[main][ref]ssim=eof_action=endall:stats_file='D\\:/Convert/FFMetrics/logs/ssim_logfile-6.txt'" -f null -
Input #0, matroska,webm, from 'G:\Аниме\[Топ]\Рыцарь-вампир\ТВ-2\[JamClub] Vampire Knight Guilty - 03_HEVC.mkv':
  Metadata:
    COMPATIBLE_BRANDS: isomiso2avc1mp41
    MAJOR_BRAND     : isom
    MINOR_VERSION   : 512
    ENCODER         : Lavf61.7.100
  Duration: 00:24:24.63, start: -0.001000, bitrate: 1032 kb/s
  Stream #0:0: Video: hevc (Main 10), yuv420p10le(tv, bt709, progressive), 1920x1080 [SAR 1:1 DAR 16:9], 23.98 fps, 23.98 tbr, 1k tbn (default)
      Metadata:
        HANDLER_NAME    : VideoHandler
        VENDOR_ID       : [0][0][0][0]
        ENCODER         : Lavc61.19.100 libx265
        BPS             : 833304
        DURATION        : 00:24:24.546708333
        NUMBER_OF_FRAMES: 43760
        NUMBER_OF_BYTES : 152551584
        _STATISTICS_WRITING_APP: mkvpropedit v66.0.0 ('Josie') 64-bit
        _STATISTICS_WRITING_DATE_UTC: 2025-06-16 10:29:35
        _STATISTICS_TAGS: BPS DURATION NUMBER_OF_FRAMES NUMBER_OF_BYTES
  Stream #0:1(eng): Audio: aac (LC), 48000 Hz, stereo, fltp (default)
      Metadata:
        HANDLER_NAME    : SoundHandler
        VENDOR_ID       : [0][0][0][0]
        ENCODER         : Lavc61.19.100 aac
        BPS             : 194851
        DURATION        : 00:24:24.592000000
        NUMBER_OF_FRAMES: 68654
        NUMBER_OF_BYTES : 35672187
        _STATISTICS_WRITING_APP: mkvpropedit v66.0.0 ('Josie') 64-bit
        _STATISTICS_WRITING_DATE_UTC: 2025-06-16 10:29:35
        _STATISTICS_TAGS: BPS DURATION NUMBER_OF_FRAMES NUMBER_OF_BYTES
Input #1, mov,mp4,m4a,3gp,3g2,mj2, from 'G:\Аниме\[Топ]\Рыцарь-вампир\ТВ-2\[JamClub] Vampire Knight Guilty - 03.mp4':
  Metadata:
    major_brand     : isom
    minor_version   : 512
    compatible_brands: isomiso2avc1mp41
    encoder         : Lavf60.16.100
  Duration: 00:24:24.61, start: 0.000000, bitrate: 3174 kb/s
  Stream #1:0[0x1](und): Video: h264 (High) (avc1 / 0x31637661), yuv420p(progressive), 1920x1080 [SAR 1:1 DAR 16:9], 2974 kb/s, 29.88 fps, 23.98 tbr, 90k tbn (default)
      Metadata:
        handler_name    : VideoHandler
        vendor_id       : [0][0][0][0]
  Stream #1:1[0x2](eng): Audio: aac (LC) (mp4a / 0x6134706D), 48000 Hz, stereo, fltp, 191 kb/s (default)
      Metadata:
        handler_name    : SoundHandler
        vendor_id       : [0][0][0][0]
Stream mapping:
  Stream #0:0 (hevc) -> settb:default
  Stream #1:0 (h264) -> settb:default
  ssim:default -> Stream #0:0 (wrapped_avframe)
  Stream #0:1 -> #0:1 (aac (native) -> pcm_s16le (native))
Output #0, null, to 'pipe:':
  Metadata:
    COMPATIBLE_BRANDS: isomiso2avc1mp41
    MAJOR_BRAND     : isom
    MINOR_VERSION   : 512
    encoder         : Lavf61.7.100
  Stream #0:0: Video: wrapped_avframe, yuv420p10le(tv, bt709, progressive), 1920x1080 [SAR 1:1 DAR 16:9], q=2-31, 200 kb/s, 23.98 fps, 23.98 tbn
      Metadata:
        encoder         : Lavc61.19.100 wrapped_avframe
  Stream #0:1(eng): Audio: pcm_s16le, 48000 Hz, stereo, s16, 1536 kb/s (default)
      Metadata:
        HANDLER_NAME    : SoundHandler
        VENDOR_ID       : [0][0][0][0]
        _STATISTICS_TAGS: BPS DURATION NUMBER_OF_FRAMES NUMBER_OF_BYTES
        BPS             : 194851
        DURATION        : 00:24:24.592000000
        NUMBER_OF_FRAMES: 68654
        NUMBER_OF_BYTES : 35672187
        _STATISTICS_WRITING_APP: mkvpropedit v66.0.0 ('Josie') 64-bit
        _STATISTICS_WRITING_DATE_UTC: 2025-06-16 10:29:35
        encoder         : Lavc61.19.100 pcm_s16le
frame=  105 fps=0.0 q=-0.0 size=N/A time=00:00:04.37 bitrate=N/A speed=8.73x    frame=  269 fps=263 q=-0.0 size=N/A time=00:00:11.21 bitrate=N/A speed=  11x    frame=  474 fps=306 q=-0.0 size=N/A time=00:00:19.76 bitrate=N/A speed=12.8x    frame=  702 fps=342 q=-0.0 size=N/A time=00:00:29.27 bitrate=N/A speed=14.2x    frame=  908 fps=354 q=-0.0 size=N/A time=00:00:37.87 bitrate=N/A speed=14.8x    frame= 1157 fps=375 q=-0.0 size=N/A time=00:00:48.25 bitrate=N/A speed=15.6x    frame= 1396 fps=388 q=-0.0 size=N/A time=00:00:58.22 bitrate=N/A speed=16.2x    frame= 1645 fps=399 q=-0.0 size=N/A time=00:01:08.61 bitrate=N/A speed=16.6x    frame= 1871 fps=404 q=-0.0 size=N/A time=00:01:18.03 bitrate=N/A speed=16.8x    frame= 2085 fps=405 q=-0.0 size=N/A time=00:01:26.96 bitrate=N/A speed=16.9x    frame= 2326 fps=410 q=-0.0 size=N/A time=00:01:37.01 bitrate=N/A speed=17.1x    frame= 2565 fps=415 q=-0.0 size=N/A time=00:01:46.98 bitrate=N/A speed=17.3x    frame= 2784 fps=416 q=-0.0 size=N/A time=00:01:56.11 bitrate=N/A speed=17.4x    frame= 3005 fps=416 q=-0.0 size=N/A time=00:02:05.33 bitrate=N/A speed=17.4x    frame= 3204 fps=415 q=-0.0 size=N/A time=00:02:13.63 bitrate=N/A speed=17.3x    frame= 3398 fps=413 q=-0.0 size=N/A time=00:02:21.72 bitrate=N/A speed=17.2x    frame= 3597 fps=411 q=-0.0 size=N/A time=00:02:30.02 bitrate=N/A speed=17.1x    frame= 3813 fps=411 q=-0.0 size=N/A time=00:02:39.03 bitrate=N/A speed=17.2x    frame= 4028 fps=411 q=-0.0 size=N/A time=00:02:48.00 bitrate=N/A speed=17.1x    frame= 4229 fps=410 q=-0.0 size=N/A time=00:02:56.38 bitrate=N/A speed=17.1x    frame= 4385 fps=405 q=-0.0 size=N/A time=00:03:02.89 bitrate=N/A speed=16.9x    frame= 4598 fps=405 q=-0.0 size=N/A time=00:03:11.77 bitrate=N/A speed=16.9x    frame= 4823 fps=407 q=-0.0 size=N/A time=00:03:21.15 bitrate=N/A speed=  17x    frame= 5037 fps=407 q=-0.0 size=N/A time=00:03:30.08 bitrate=N/A speed=  17x    frame= 5273 fps=409 q=-0.0 size=N/A time=00:03:39.92 bitrate=N/A speed=17.1x    frame= 5503 fps=411 q=-0.0 size=N/A time=00:03:49.52 bitrate=N/A speed=17.1x    frame= 5728 fps=412 q=-0.0 size=N/A time=00:03:58.90 bitrate=N/A speed=17.2x    frame= 5965 fps=413 q=-0.0 size=N/A time=00:04:08.79 bitrate=N/A speed=17.2x    frame= 6171 fps=413 q=-0.0 size=N/A time=00:04:17.38 bitrate=N/A speed=17.2x    frame= 6377 fps=413 q=-0.0 size=N/A time=00:04:25.97 bitrate=N/A speed=17.2x    frame= 6601 fps=413 q=-0.0 size=N/A time=00:04:35.31 bitrate=N/A speed=17.2x    frame= 6847 fps=415 q=-0.0 size=N/A time=00:04:45.57 bitrate=N/A speed=17.3x    frame= 7087 fps=417 q=-0.0 size=N/A time=00:04:55.58 bitrate=N/A speed=17.4x    frame= 7336 fps=418 q=-0.0 size=N/A time=00:05:05.97 bitrate=N/A speed=17.5x    frame= 7568 fps=419 q=-0.0 size=N/A time=00:05:15.64 bitrate=N/A speed=17.5x    frame= 7811 fps=421 q=-0.0 size=N/A time=00:05:25.78 bitrate=N/A speed=17.6x    frame= 8060 fps=422 q=-0.0 size=N/A time=00:05:36.16 bitrate=N/A speed=17.6x    frame= 8301 fps=424 q=-0.0 size=N/A time=00:05:46.22 bitrate=N/A speed=17.7x    frame= 8546 fps=425 q=-0.0 size=N/A time=00:05:56.43 bitrate=N/A speed=17.7x    frame= 8791 fps=426 q=-0.0 size=N/A time=00:06:06.65 bitrate=N/A speed=17.8x    frame= 8999 fps=426 q=-0.0 size=N/A time=00:06:15.33 bitrate=N/A speed=17.8x    frame= 9207 fps=425 q=-0.0 size=N/A time=00:06:24.00 bitrate=N/A speed=17.7x    frame= 9449 fps=426 q=-0.0 size=N/A time=00:06:34.10 bitrate=N/A speed=17.8x    frame= 9690 fps=427 q=-0.0 size=N/A time=00:06:44.15 bitrate=N/A speed=17.8x    frame= 9931 fps=428 q=-0.0 size=N/A time=00:06:54.20 bitrate=N/A speed=17.9x    frame=10167 fps=429 q=-0.0 size=N/A time=00:07:04.04 bitrate=N/A speed=17.9x    frame=10408 fps=430 q=-0.0 size=N/A time=00:07:14.10 bitrate=N/A speed=17.9x    frame=10640 fps=430 q=-0.0 size=N/A time=00:07:23.77 bitrate=N/A speed=17.9x    frame=10887 fps=431 q=-0.0 size=N/A time=00:07:34.07 bitrate=N/A speed=  18x    frame=11096 fps=430 q=-0.0 size=N/A time=00:07:42.79 bitrate=N/A speed=  18x    frame=11336 fps=431 q=-0.0 size=N/A time=00:07:52.80 bitrate=N/A speed=  18x    frame=11571 fps=432 q=-0.0 size=N/A time=00:08:02.60 bitrate=N/A speed=  18x    frame=11809 fps=432 q=-0.0 size=N/A time=00:08:12.53 bitrate=N/A speed=  18x    frame=12036 fps=432 q=-0.0 size=N/A time=00:08:22.00 bitrate=N/A speed=  18x    frame=12288 fps=433 q=-0.0 size=N/A time=00:08:32.51 bitrate=N/A speed=18.1x    frame=12492 fps=433 q=-0.0 size=N/A time=00:08:41.02 bitrate=N/A speed=18.1x    frame=12724 fps=433 q=-0.0 size=N/A time=00:08:50.69 bitrate=N/A speed=18.1x    frame=12951 fps=433 q=-0.0 size=N/A time=00:09:00.16 bitrate=N/A speed=18.1x    frame=13145 fps=432 q=-0.0 size=N/A time=00:09:08.25 bitrate=N/A speed=  18x    frame=13342 fps=431 q=-0.0 size=N/A time=00:09:16.47 bitrate=N/A speed=  18x    frame=13557 fps=431 q=-0.0 size=N/A time=00:09:25.43 bitrate=N/A speed=  18x    frame=13783 fps=431 q=-0.0 size=N/A time=00:09:34.86 bitrate=N/A speed=  18x    frame=14029 fps=432 q=-0.0 size=N/A time=00:09:45.12 bitrate=N/A speed=  18x    frame=14250 fps=432 q=-0.0 size=N/A time=00:09:54.34 bitrate=N/A speed=  18x    frame=14476 fps=432 q=-0.0 size=N/A time=00:10:03.76 bitrate=N/A speed=  18x    frame=14710 fps=432 q=-0.0 size=N/A time=00:10:13.52 bitrate=N/A speed=  18x    frame=14943 fps=433 q=-0.0 size=N/A time=00:10:23.24 bitrate=N/A speed=  18x    frame=15176 fps=433 q=-0.0 size=N/A time=00:10:32.96 bitrate=N/A speed=18.1x    frame=15433 fps=434 q=-0.0 size=N/A time=00:10:43.68 bitrate=N/A speed=18.1x    frame=15681 fps=435 q=-0.0 size=N/A time=00:10:54.02 bitrate=N/A speed=18.1x    frame=15916 fps=435 q=-0.0 size=N/A time=00:11:03.82 bitrate=N/A speed=18.1x    frame=16150 fps=435 q=-0.0 size=N/A time=00:11:13.58 bitrate=N/A speed=18.1x    frame=16384 fps=435 q=-0.0 size=N/A time=00:11:23.34 bitrate=N/A speed=18.2x    frame=16618 fps=436 q=-0.0 size=N/A time=00:11:33.10 bitrate=N/A speed=18.2x    frame=16863 fps=436 q=-0.0 size=N/A time=00:11:43.32 bitrate=N/A speed=18.2x    frame=17086 fps=436 q=-0.0 size=N/A time=00:11:52.62 bitrate=N/A speed=18.2x    frame=17326 fps=437 q=-0.0 size=N/A time=00:12:02.63 bitrate=N/A speed=18.2x    frame=17561 fps=437 q=-0.0 size=N/A time=00:12:12.44 bitrate=N/A speed=18.2x    frame=17783 fps=437 q=-0.0 size=N/A time=00:12:21.69 bitrate=N/A speed=18.2x    frame=18005 fps=437 q=-0.0 size=N/A time=00:12:30.95 bitrate=N/A speed=18.2x    frame=18213 fps=436 q=-0.0 size=N/A time=00:12:39.63 bitrate=N/A speed=18.2x    frame=18444 fps=436 q=-0.0 size=N/A time=00:12:49.26 bitrate=N/A speed=18.2x    frame=18648 fps=436 q=-0.0 size=N/A time=00:12:57.77 bitrate=N/A speed=18.2x    frame=18881 fps=436 q=-0.0 size=N/A time=00:13:07.49 bitrate=N/A speed=18.2x    frame=19117 fps=436 q=-0.0 size=N/A time=00:13:17.33 bitrate=N/A speed=18.2x    frame=19353 fps=437 q=-0.0 size=N/A time=00:13:27.18 bitrate=N/A speed=18.2x    frame=19598 fps=437 q=-0.0 size=N/A time=00:13:37.39 bitrate=N/A speed=18.2x    frame=19788 fps=436 q=-0.0 size=N/A time=00:13:45.32 bitrate=N/A speed=18.2x    frame=20026 fps=436 q=-0.0 size=N/A time=00:13:55.25 bitrate=N/A speed=18.2x    frame=20224 fps=436 q=-0.0 size=N/A time=00:14:03.50 bitrate=N/A speed=18.2x    frame=20410 fps=435 q=-0.0 size=N/A time=00:14:11.26 bitrate=N/A speed=18.1x    frame=20639 fps=435 q=-0.0 size=N/A time=00:14:20.81 bitrate=N/A speed=18.1x    frame=20875 fps=435 q=-0.0 size=N/A time=00:14:30.66 bitrate=N/A speed=18.2x    frame=21111 fps=436 q=-0.0 size=N/A time=00:14:40.50 bitrate=N/A speed=18.2x    frame=21319 fps=435 q=-0.0 size=N/A time=00:14:49.17 bitrate=N/A speed=18.2x    frame=21550 fps=435 q=-0.0 size=N/A time=00:14:58.81 bitrate=N/A speed=18.2x    frame=21782 fps=436 q=-0.0 size=N/A time=00:15:08.49 bitrate=N/A speed=18.2x    frame=22030 fps=436 q=-0.0 size=N/A time=00:15:18.83 bitrate=N/A speed=18.2x    frame=22253 fps=436 q=-0.0 size=N/A time=00:15:28.13 bitrate=N/A speed=18.2x    frame=22480 fps=436 q=-0.0 size=N/A time=00:15:37.60 bitrate=N/A speed=18.2x    frame=22686 fps=436 q=-0.0 size=N/A time=00:15:46.19 bitrate=N/A speed=18.2x    frame=22920 fps=436 q=-0.0 size=N/A time=00:15:55.95 bitrate=N/A speed=18.2x    frame=23135 fps=436 q=-0.0 size=N/A time=00:16:04.92 bitrate=N/A speed=18.2x    frame=23371 fps=436 q=-0.0 size=N/A time=00:16:14.76 bitrate=N/A speed=18.2x    frame=23600 fps=436 q=-0.0 size=N/A time=00:16:24.31 bitrate=N/A speed=18.2x    frame=23850 fps=436 q=-0.0 size=N/A time=00:16:34.74 bitrate=N/A speed=18.2x    frame=24095 fps=437 q=-0.0 size=N/A time=00:16:44.96 bitrate=N/A speed=18.2x    frame=24330 fps=437 q=-0.0 size=N/A time=00:16:54.76 bitrate=N/A speed=18.2x    frame=24575 fps=437 q=-0.0 size=N/A time=00:17:04.98 bitrate=N/A speed=18.2x    frame=24813 fps=437 q=-0.0 size=N/A time=00:17:14.90 bitrate=N/A speed=18.2x    frame=25049 fps=438 q=-0.0 size=N/A time=00:17:24.75 bitrate=N/A speed=18.3x    frame=25292 fps=438 q=-0.0 size=N/A time=00:17:34.88 bitrate=N/A speed=18.3x    frame=25537 fps=438 q=-0.0 size=N/A time=00:17:45.10 bitrate=N/A speed=18.3x    frame=25767 fps=438 q=-0.0 size=N/A time=00:17:54.69 bitrate=N/A speed=18.3x    frame=26007 fps=439 q=-0.0 size=N/A time=00:18:04.70 bitrate=N/A speed=18.3x    frame=26257 fps=439 q=-0.0 size=N/A time=00:18:15.13 bitrate=N/A speed=18.3x    frame=26491 fps=439 q=-0.0 size=N/A time=00:18:24.89 bitrate=N/A speed=18.3x    frame=26707 fps=439 q=-0.0 size=N/A time=00:18:33.90 bitrate=N/A speed=18.3x    frame=26940 fps=439 q=-0.0 size=N/A time=00:18:43.62 bitrate=N/A speed=18.3x    frame=27152 fps=439 q=-0.0 size=N/A time=00:18:52.46 bitrate=N/A speed=18.3x    frame=27370 fps=439 q=-0.0 size=N/A time=00:19:01.55 bitrate=N/A speed=18.3x    frame=27579 fps=438 q=-0.0 size=N/A time=00:19:10.27 bitrate=N/A speed=18.3x    frame=27813 fps=438 q=-0.0 size=N/A time=00:19:20.03 bitrate=N/A speed=18.3x    frame=28030 fps=438 q=-0.0 size=N/A time=00:19:29.08 bitrate=N/A speed=18.3x    frame=28238 fps=438 q=-0.0 size=N/A time=00:19:37.75 bitrate=N/A speed=18.3x    frame=28473 fps=438 q=-0.0 size=N/A time=00:19:47.56 bitrate=N/A speed=18.3x    frame=28691 fps=438 q=-0.0 size=N/A time=00:19:56.65 bitrate=N/A speed=18.3x    frame=28904 fps=438 q=-0.0 size=N/A time=00:20:05.53 bitrate=N/A speed=18.3x    frame=29118 fps=438 q=-0.0 size=N/A time=00:20:14.46 bitrate=N/A speed=18.3x    frame=29340 fps=438 q=-0.0 size=N/A time=00:20:23.72 bitrate=N/A speed=18.3x    frame=29565 fps=438 q=-0.0 size=N/A time=00:20:33.10 bitrate=N/A speed=18.3x    frame=29792 fps=438 q=-0.0 size=N/A time=00:20:42.57 bitrate=N/A speed=18.3x    frame=30021 fps=438 q=-0.0 size=N/A time=00:20:52.12 bitrate=N/A speed=18.3x    frame=30248 fps=438 q=-0.0 size=N/A time=00:21:01.59 bitrate=N/A speed=18.3x    frame=30491 fps=438 q=-0.0 size=N/A time=00:21:11.72 bitrate=N/A speed=18.3x    frame=30708 fps=438 q=-0.0 size=N/A time=00:21:20.77 bitrate=N/A speed=18.3x    frame=30955 fps=438 q=-0.0 size=N/A time=00:21:31.08 bitrate=N/A speed=18.3x    frame=31192 fps=438 q=-0.0 size=N/A time=00:21:40.96 bitrate=N/A speed=18.3x    frame=31434 fps=438 q=-0.0 size=N/A time=00:21:51.05 bitrate=N/A speed=18.3x    frame=31657 fps=438 q=-0.0 size=N/A time=00:22:00.36 bitrate=N/A speed=18.3x    frame=31866 fps=438 q=-0.0 size=N/A time=00:22:09.07 bitrate=N/A speed=18.3x    frame=32087 fps=438 q=-0.0 size=N/A time=00:22:18.29 bitrate=N/A speed=18.3x    frame=32317 fps=438 q=-0.0 size=N/A time=00:22:27.88 bitrate=N/A speed=18.3x    frame=32547 fps=438 q=-0.0 size=N/A time=00:22:37.48 bitrate=N/A speed=18.3x    frame=32757 fps=438 q=-0.0 size=N/A time=00:22:46.23 bitrate=N/A speed=18.3x    frame=32967 fps=438 q=-0.0 size=N/A time=00:22:54.99 bitrate=N/A speed=18.3x    frame=33181 fps=438 q=-0.0 size=N/A time=00:23:03.92 bitrate=N/A speed=18.3x    frame=33375 fps=437 q=-0.0 size=N/A time=00:23:12.01 bitrate=N/A speed=18.2x    frame=33582 fps=437 q=-0.0 size=N/A time=00:23:20.64 bitrate=N/A speed=18.2x    frame=33779 fps=437 q=-0.0 size=N/A time=00:23:28.86 bitrate=N/A speed=18.2x    frame=33985 fps=436 q=-0.0 size=N/A time=00:23:37.45 bitrate=N/A speed=18.2x    frame=34202 fps=436 q=-0.0 size=N/A time=00:23:46.50 bitrate=N/A speed=18.2x    frame=34425 fps=436 q=-0.0 size=N/A time=00:23:55.80 bitrate=N/A speed=18.2x    frame=34619 fps=436 q=-0.0 size=N/A time=00:24:03.90 bitrate=N/A speed=18.2x    frame=34801 fps=435 q=-0.0 size=N/A time=00:24:11.49 bitrate=N/A speed=18.2x    frame=35030 fps=435 q=-0.0 size=N/A time=00:24:21.04 bitrate=N/A speed=18.2x    [Parsed_ssim_10 @ 00000224ef3ceb00] SSIM Y:0.995306 (23.284441) U:0.994889 (22.915112) V:0.995376 (23.349574) All:0.995248 (23.231294)
[out#0/null @ 00000224e9cbb040] video:15088KiB audio:274616KiB subtitle:0KiB other streams:0KiB global headers:0KiB muxing overhead: unknown
frame=35114 fps=435 q=-0.0 Lsize=N/A time=00:24:24.54 bitrate=N/A speed=18.2x    
